<?xml version="1.0" encoding="UTF-8"?>
<!-- Generator: visioncortex VTracer 0.6.3 -->
<svg version="1.1" xmlns="http://www.w3.org/2000/svg" width="1280" height="1280">
<path d="M0 0 C0.79 -0 1.57 -0.01 2.38 -0.01 C5.01 -0.02 7.63 -0.01 10.26 -0 C12.18 -0.01 14.09 -0.01 16 -0.02 C21.27 -0.03 26.54 -0.03 31.82 -0.02 C37.55 -0.01 43.28 -0.03 49.01 -0.03 C59.05 -0.05 69.1 -0.05 79.15 -0.05 C89.93 -0.04 100.71 -0.04 111.49 -0.05 C112.17 -0.05 112.86 -0.05 113.56 -0.05 C116.33 -0.06 119.1 -0.06 121.88 -0.06 C150.03 -0.09 178.19 -0.09 206.35 -0.09 C210.24 -0.09 214.13 -0.09 218.02 -0.09 C219.18 -0.09 219.18 -0.09 220.37 -0.09 C237.49 -0.09 254.62 -0.09 271.74 -0.1 C275.65 -0.1 279.56 -0.1 283.47 -0.1 C285.04 -0.1 286.61 -0.11 288.18 -0.11 C289.35 -0.11 289.35 -0.11 290.54 -0.11 C292.11 -0.11 293.68 -0.11 295.26 -0.11 C339.9 -0.12 384.55 -0.13 429.19 -0.13 C430.02 -0.13 430.85 -0.13 431.7 -0.13 C440.92 -0.13 450.14 -0.12 459.36 -0.12 C461.88 -0.12 464.41 -0.12 466.93 -0.12 C468.62 -0.12 470.3 -0.12 471.98 -0.12 C525.23 -0.12 578.48 -0.13 631.72 -0.16 C645.14 -0.17 658.56 -0.18 671.97 -0.19 C672.8 -0.19 673.63 -0.19 674.48 -0.19 C699.93 -0.2 725.39 -0.21 750.85 -0.21 C751.65 -0.21 752.45 -0.21 753.27 -0.21 C770.82 -0.22 788.36 -0.22 805.91 -0.21 C812.19 -0.21 818.46 -0.21 824.74 -0.21 C826.3 -0.21 827.86 -0.21 829.43 -0.21 C854.32 -0.21 879.2 -0.22 904.09 -0.24 C929.16 -0.26 954.23 -0.27 979.29 -0.25 C982.76 -0.25 986.22 -0.24 989.68 -0.24 C990.36 -0.24 991.04 -0.24 991.74 -0.24 C1003.15 -0.23 1014.55 -0.25 1025.95 -0.26 C1035.87 -0.28 1045.79 -0.27 1055.71 -0.26 C1061.36 -0.25 1067.02 -0.24 1072.67 -0.26 C1077.82 -0.28 1082.96 -0.28 1088.11 -0.25 C1089.96 -0.25 1091.81 -0.25 1093.65 -0.26 C1105.46 -0.34 1116.43 0.21 1125.85 8.38 C1125.85 9.04 1125.85 9.7 1125.85 10.38 C1126.84 10.71 1127.83 11.04 1128.85 11.38 C1135.57 18.82 1139.1 27.93 1139.11 37.87 C1139.12 38.61 1139.12 39.35 1139.12 40.11 C1139.13 42.58 1139.13 45.05 1139.13 47.53 C1139.13 49.32 1139.14 51.11 1139.14 52.9 C1139.16 57.82 1139.16 62.74 1139.16 67.66 C1139.16 72.97 1139.17 78.27 1139.18 83.58 C1139.21 95.19 1139.21 106.79 1139.22 118.4 C1139.22 125.65 1139.23 132.89 1139.24 140.14 C1139.26 160.21 1139.27 180.28 1139.27 200.35 C1139.28 201.63 1139.28 202.92 1139.28 204.24 C1139.28 206.84 1139.28 209.45 1139.28 212.05 C1139.28 213.34 1139.28 214.64 1139.28 215.97 C1139.28 217.26 1139.28 218.56 1139.28 219.89 C1139.28 240.86 1139.31 261.82 1139.35 282.79 C1139.38 304.31 1139.4 325.84 1139.4 347.37 C1139.4 359.46 1139.41 371.54 1139.44 383.63 C1139.47 393.92 1139.47 404.21 1139.46 414.5 C1139.45 419.75 1139.45 425 1139.47 430.25 C1139.5 435.06 1139.49 439.87 1139.47 444.68 C1139.47 446.42 1139.47 448.15 1139.49 449.89 C1139.58 461.49 1139 473.18 1130.85 482.38 C1130.19 482.38 1129.53 482.38 1128.85 482.38 C1128.58 483.02 1128.32 483.66 1128.04 484.32 C1126.85 486.38 1126.85 486.38 1123.85 487.38 C1123.85 488.04 1123.85 488.7 1123.85 489.38 C1122.53 490.18 1121.19 490.97 1119.85 491.75 C1119.11 492.19 1118.37 492.64 1117.6 493.09 C1111.47 495.96 1105.44 496.67 1098.74 496.63 C1097.96 496.63 1097.18 496.64 1096.37 496.64 C1093.76 496.65 1091.14 496.64 1088.53 496.63 C1086.62 496.64 1084.72 496.64 1082.82 496.64 C1077.57 496.65 1072.32 496.65 1067.08 496.64 C1061.38 496.64 1055.67 496.64 1049.97 496.65 C1039.97 496.66 1029.98 496.66 1019.98 496.66 C1009.25 496.65 998.52 496.65 987.79 496.66 C987.12 496.66 986.44 496.66 985.74 496.66 C982.98 496.66 980.22 496.66 977.46 496.67 C949.44 496.68 921.42 496.68 893.41 496.68 C889.54 496.68 885.66 496.68 881.79 496.68 C881.02 496.68 880.25 496.68 879.46 496.68 C862.42 496.68 845.38 496.68 828.35 496.68 C824.46 496.69 820.57 496.69 816.68 496.69 C815.11 496.69 813.55 496.69 811.99 496.69 C811.22 496.69 810.44 496.69 809.65 496.69 C808.08 496.69 806.52 496.69 804.95 496.69 C760.53 496.7 716.12 496.7 671.7 496.7 C670.88 496.7 670.06 496.7 669.21 496.7 C660.03 496.7 650.86 496.7 641.69 496.7 C640.45 496.69 640.45 496.69 639.18 496.69 C632.3 496.69 632.3 496.69 629.13 496.69 C576.15 496.69 523.17 496.7 470.19 496.71 C456.84 496.72 443.49 496.72 430.14 496.73 C428.9 496.73 428.9 496.73 427.65 496.73 C402.32 496.74 376.99 496.74 351.66 496.74 C350.46 496.74 350.46 496.74 349.25 496.74 C331.79 496.74 314.34 496.74 296.89 496.74 C290.64 496.74 284.4 496.74 278.15 496.74 C276.6 496.74 275.05 496.74 273.49 496.74 C248.73 496.74 223.96 496.75 199.19 496.76 C173.56 496.77 147.93 496.77 122.3 496.76 C119.54 496.76 116.79 496.76 114.04 496.75 C113.37 496.75 112.69 496.75 112 496.75 C100.64 496.75 89.29 496.76 77.94 496.77 C68.08 496.77 58.21 496.77 48.35 496.76 C42.72 496.75 37.09 496.75 31.46 496.76 C26.35 496.77 21.23 496.77 16.11 496.76 C14.27 496.75 12.43 496.76 10.59 496.76 C-1.88 496.81 -11 495.26 -22.15 489.38 C-22.15 488.72 -22.15 488.06 -22.15 487.38 C-23.11 486.98 -23.11 486.98 -24.09 486.57 C-26.15 485.38 -26.15 485.38 -27.15 482.38 C-27.81 482.38 -28.47 482.38 -29.15 482.38 C-31.89 479.42 -32.15 478.6 -32.15 474.38 C-32.81 474.38 -33.47 474.38 -34.15 474.38 C-37.91 465.7 -37.57 457.15 -37.53 447.88 C-37.53 446.09 -37.54 444.3 -37.54 442.51 C-37.56 437.6 -37.55 432.68 -37.54 427.77 C-37.53 422.47 -37.54 417.17 -37.55 411.87 C-37.57 401.49 -37.56 391.11 -37.55 380.73 C-37.55 372.3 -37.55 363.86 -37.55 355.43 C-37.55 354.23 -37.55 353.03 -37.55 351.79 C-37.55 349.35 -37.55 346.91 -37.55 344.47 C-37.56 321.6 -37.55 298.73 -37.54 275.86 C-37.52 256.23 -37.53 236.61 -37.54 216.99 C-37.56 194.2 -37.56 171.41 -37.55 148.62 C-37.55 146.19 -37.55 143.76 -37.55 141.33 C-37.55 140.13 -37.55 138.94 -37.55 137.71 C-37.55 129.28 -37.55 120.86 -37.56 112.43 C-37.57 102.16 -37.56 91.89 -37.55 81.63 C-37.54 76.39 -37.54 71.15 -37.55 65.91 C-37.56 61.11 -37.55 56.32 -37.53 51.52 C-37.53 49.79 -37.53 48.05 -37.54 46.32 C-37.58 35.08 -36.97 26.14 -30.65 16.38 C-30.06 15.45 -29.47 14.52 -28.87 13.57 C-27.15 11.38 -27.15 11.38 -24.15 10.38 C-24.15 9.72 -24.15 9.06 -24.15 8.38 C-22.68 7.19 -22.68 7.19 -20.65 5.94 C-20 5.53 -19.35 5.12 -18.68 4.69 C-12.4 1.43 -7.07 -0.07 0 0 Z M38.85 75.38 C38.85 189.23 38.85 303.08 38.85 420.38 C376.77 420.38 714.69 420.38 1062.85 420.38 C1062.85 306.53 1062.85 192.68 1062.85 75.38 C724.93 75.38 387.01 75.38 38.85 75.38 Z " fill="#000000" transform="translate(89.14842867851257,98.62165117263794)"/>
<path d="M0 0 C0.78 -0 1.56 -0.01 2.37 -0.01 C4.98 -0.02 7.6 -0.01 10.21 -0 C12.12 -0.01 14.02 -0.01 15.92 -0.01 C21.17 -0.02 26.41 -0.02 31.66 -0.01 C37.36 -0.01 43.06 -0.01 48.77 -0.02 C58.76 -0.03 68.76 -0.03 78.76 -0.03 C89.49 -0.02 100.22 -0.02 110.95 -0.03 C111.62 -0.03 112.3 -0.03 113 -0.03 C115.76 -0.03 118.52 -0.03 121.28 -0.03 C149.3 -0.05 177.31 -0.05 205.33 -0.05 C209.2 -0.05 213.07 -0.05 216.95 -0.05 C217.72 -0.05 218.48 -0.05 219.28 -0.05 C236.32 -0.05 253.35 -0.05 270.39 -0.05 C274.28 -0.06 278.17 -0.06 282.06 -0.06 C283.62 -0.06 285.18 -0.06 286.75 -0.06 C287.52 -0.06 288.29 -0.06 289.09 -0.06 C290.66 -0.06 292.22 -0.06 293.79 -0.06 C338.2 -0.07 382.62 -0.07 427.04 -0.07 C427.86 -0.07 428.68 -0.07 429.53 -0.07 C438.7 -0.07 447.88 -0.07 457.05 -0.06 C458.29 -0.06 458.29 -0.06 459.56 -0.06 C466.44 -0.06 466.44 -0.06 469.61 -0.06 C522.59 -0.06 575.57 -0.07 628.55 -0.08 C641.9 -0.09 655.25 -0.09 668.6 -0.1 C669.42 -0.1 670.25 -0.1 671.09 -0.1 C696.42 -0.11 721.75 -0.11 747.08 -0.11 C747.88 -0.11 748.67 -0.11 749.49 -0.11 C766.95 -0.11 784.4 -0.11 801.85 -0.11 C808.1 -0.11 814.34 -0.11 820.59 -0.11 C822.14 -0.11 823.69 -0.11 825.25 -0.11 C850.01 -0.11 874.78 -0.12 899.55 -0.13 C925.18 -0.14 950.81 -0.14 976.44 -0.13 C979.19 -0.13 981.95 -0.13 984.7 -0.12 C985.37 -0.12 986.05 -0.12 986.74 -0.12 C998.09 -0.12 1009.44 -0.13 1020.79 -0.14 C1030.66 -0.14 1040.53 -0.14 1050.39 -0.13 C1056.02 -0.12 1061.65 -0.12 1067.27 -0.13 C1072.39 -0.14 1077.51 -0.14 1082.62 -0.13 C1084.47 -0.12 1086.31 -0.13 1088.15 -0.13 C1100.62 -0.18 1109.73 1.37 1120.89 7.25 C1120.89 7.91 1120.89 8.57 1120.89 9.25 C1121.85 9.65 1121.85 9.65 1122.82 10.06 C1124.89 11.25 1124.89 11.25 1125.89 14.25 C1126.55 14.25 1127.21 14.25 1127.89 14.25 C1129.07 15.69 1129.07 15.69 1130.32 17.69 C1130.74 18.33 1131.15 18.97 1131.57 19.62 C1136.4 29.26 1136.32 38.26 1136.28 48.77 C1136.29 50.56 1136.29 52.35 1136.3 54.15 C1136.32 59.06 1136.31 63.98 1136.31 68.9 C1136.31 74.2 1136.32 79.51 1136.33 84.82 C1136.35 95.21 1136.36 105.6 1136.36 115.99 C1136.35 124.44 1136.36 132.89 1136.37 141.34 C1136.37 143.77 1136.37 146.21 1136.37 148.64 C1136.37 149.85 1136.37 151.06 1136.38 152.31 C1136.39 175.22 1136.39 198.13 1136.39 221.04 C1136.38 241.99 1136.4 262.95 1136.43 283.9 C1136.47 305.42 1136.48 326.94 1136.48 348.46 C1136.48 360.54 1136.48 372.62 1136.51 384.7 C1136.53 394.98 1136.53 405.27 1136.51 415.55 C1136.5 420.79 1136.5 426.04 1136.52 431.28 C1136.54 436.09 1136.54 440.9 1136.51 445.7 C1136.51 447.44 1136.51 449.17 1136.53 450.9 C1136.62 464.06 1134.42 474.28 1126.22 484.92 C1124.89 486.25 1124.89 486.25 1122.89 486.25 C1122.89 486.91 1122.89 487.57 1122.89 488.25 C1121.16 489.21 1119.43 490.17 1117.7 491.13 C1116.74 491.66 1115.77 492.19 1114.78 492.74 C1109.38 495.56 1105.2 496.54 1099.11 496.5 C1098.33 496.51 1097.54 496.51 1096.74 496.51 C1094.1 496.52 1091.47 496.52 1088.84 496.51 C1086.93 496.51 1085.02 496.52 1083.11 496.52 C1077.83 496.53 1072.55 496.53 1067.27 496.52 C1061.54 496.52 1055.81 496.53 1050.07 496.53 C1040.02 496.54 1029.96 496.55 1019.91 496.54 C1009.11 496.54 998.32 496.54 987.53 496.55 C986.85 496.55 986.17 496.55 985.46 496.55 C982.69 496.55 979.92 496.56 977.14 496.56 C948.19 496.58 919.23 496.58 890.27 496.59 C887.16 496.59 884.04 496.59 880.92 496.59 C880.15 496.59 879.37 496.59 878.57 496.59 C861.44 496.59 844.3 496.59 827.16 496.6 C820.11 496.6 813.06 496.6 806 496.6 C804.83 496.6 804.83 496.6 803.64 496.6 C758.97 496.62 714.3 496.62 669.63 496.62 C667.96 496.62 666.29 496.62 664.62 496.62 C657.07 496.62 649.52 496.62 641.97 496.62 C638.6 496.62 635.24 496.62 631.87 496.62 C630.18 496.62 628.5 496.62 626.81 496.62 C573.53 496.62 520.24 496.64 466.95 496.66 C453.53 496.67 440.1 496.68 426.67 496.68 C425.85 496.68 425.02 496.68 424.17 496.69 C398.7 496.7 373.22 496.71 347.75 496.71 C346.95 496.71 346.15 496.71 345.33 496.71 C327.78 496.71 310.22 496.71 292.67 496.71 C286.39 496.71 280.11 496.71 273.83 496.71 C272.27 496.71 270.71 496.71 269.14 496.71 C244.23 496.71 219.33 496.72 194.42 496.74 C169.33 496.75 144.25 496.76 119.16 496.75 C115.7 496.74 112.23 496.74 108.77 496.74 C107.75 496.74 107.75 496.74 106.71 496.74 C95.29 496.73 83.88 496.75 72.46 496.76 C62.54 496.77 52.61 496.77 42.69 496.76 C37.03 496.75 31.37 496.75 25.71 496.76 C20.56 496.78 15.41 496.77 10.27 496.75 C8.41 496.75 6.56 496.75 4.71 496.77 C-12.57 496.86 -12.57 496.86 -20.11 492.25 C-21.29 491.72 -22.46 491.18 -23.68 490.63 C-31.3 486.15 -36.48 477.21 -39.17 469.05 C-40.15 465.09 -40.37 461.72 -40.37 457.64 C-40.37 456.9 -40.37 456.16 -40.38 455.4 C-40.39 452.93 -40.38 450.46 -40.37 447.99 C-40.38 446.2 -40.38 444.41 -40.39 442.62 C-40.4 437.71 -40.39 432.79 -40.39 427.88 C-40.39 422.58 -40.4 417.28 -40.4 411.97 C-40.42 401.59 -40.42 391.2 -40.42 380.82 C-40.41 372.37 -40.42 363.93 -40.42 355.49 C-40.42 353.69 -40.42 353.69 -40.42 351.85 C-40.42 349.41 -40.42 346.97 -40.43 344.53 C-40.44 321.65 -40.43 298.76 -40.43 275.88 C-40.42 254.94 -40.43 234 -40.45 213.06 C-40.47 191.57 -40.48 170.07 -40.48 148.57 C-40.48 136.5 -40.48 124.43 -40.49 112.36 C-40.5 102.09 -40.51 91.81 -40.49 81.54 C-40.49 76.3 -40.49 71.05 -40.5 65.81 C-40.51 61.01 -40.51 56.21 -40.49 51.41 C-40.49 49.68 -40.49 47.94 -40.5 46.2 C-40.54 37.74 -40.54 30.16 -37.11 22.25 C-36.45 22.25 -35.79 22.25 -35.11 22.25 C-34.99 21.49 -34.87 20.73 -34.74 19.94 C-34.11 17.25 -34.11 17.25 -32.11 14.25 C-31.45 14.25 -30.79 14.25 -30.11 14.25 C-29.85 13.61 -29.58 12.97 -29.3 12.31 C-28.11 10.25 -28.11 10.25 -25.11 9.25 C-25.11 8.59 -25.11 7.93 -25.11 7.25 C-23.79 6.45 -22.45 5.66 -21.11 4.88 C-20 4.22 -20 4.22 -18.86 3.54 C-12.73 0.67 -6.7 -0.04 0 0 Z M35.89 76.25 C35.89 190.1 35.89 303.95 35.89 421.25 C373.81 421.25 711.73 421.25 1059.89 421.25 C1059.89 307.4 1059.89 193.55 1059.89 76.25 C721.97 76.25 384.05 76.25 35.89 76.25 Z " fill="#000000" transform="translate(92.1134085059166,684.7481510043144)"/>
<path d="M0 0 C9.47 -0.4 17.36 2.8 25.57 7.21 C25.57 7.87 25.57 8.53 25.57 9.21 C26.56 9.54 27.55 9.87 28.57 10.21 C28.57 10.87 28.57 11.53 28.57 12.21 C29.21 12.48 29.85 12.74 30.51 13.02 C32.57 14.21 32.57 14.21 33.57 17.21 C34.23 17.54 34.89 17.87 35.57 18.21 C36.23 18.54 36.89 18.87 37.57 19.21 C37.9 20.2 38.23 21.19 38.57 22.21 C39.23 22.21 39.89 22.21 40.57 22.21 C42.2 23.58 42.2 23.58 43.57 25.21 C43.57 25.87 43.57 26.53 43.57 27.21 C44.23 27.21 44.89 27.21 45.57 27.21 C47.2 28.58 47.2 28.58 48.57 30.21 C48.57 30.87 48.57 31.53 48.57 32.21 C49.23 32.21 49.89 32.21 50.57 32.21 C51.81 33.46 51.81 33.46 53.32 35.33 C57.56 40.35 62.23 44.89 66.95 49.46 C67.55 50.04 68.14 50.63 68.76 51.23 C69.3 51.76 69.84 52.28 70.4 52.82 C71.57 54.21 71.57 54.21 71.57 56.21 C72.23 56.21 72.89 56.21 73.57 56.21 C74.91 57.57 74.91 57.57 76.51 59.52 C80.11 63.78 83.99 67.67 88.02 71.52 C89.24 72.72 90.41 73.96 91.57 75.21 C91.57 75.87 91.57 76.53 91.57 77.21 C92.23 77.21 92.89 77.21 93.57 77.21 C93.57 77.87 93.57 78.53 93.57 79.21 C94.56 79.54 95.55 79.87 96.57 80.21 C96.57 80.87 96.57 81.53 96.57 82.21 C97.23 82.21 97.89 82.21 98.57 82.21 C98.57 82.87 98.57 83.53 98.57 84.21 C99.56 84.54 100.55 84.87 101.57 85.21 C101.57 85.87 101.57 86.53 101.57 87.21 C102.23 87.21 102.89 87.21 103.57 87.21 C103.57 87.87 103.57 88.53 103.57 89.21 C104.56 89.54 105.55 89.87 106.57 90.21 C106.57 90.87 106.57 91.53 106.57 92.21 C107.23 92.21 107.89 92.21 108.57 92.21 C110.02 93.68 110.02 93.68 111.7 95.71 C114.25 98.72 116.87 101.53 119.7 104.27 C128.25 112.74 132.42 121.37 132.76 133.58 C132.58 145.61 128.07 154.26 119.76 162.71 C118.51 164.01 117.26 165.31 116.01 166.62 C115.41 167.23 114.82 167.85 114.21 168.48 C111.62 171.22 109.2 174.08 106.81 176.98 C105.57 178.21 105.57 178.21 103.57 178.21 C103.57 178.87 103.57 179.53 103.57 180.21 C102.2 181.83 102.2 181.83 100.57 183.21 C99.91 183.21 99.25 183.21 98.57 183.21 C98.57 183.87 98.57 184.53 98.57 185.21 C97.2 186.83 97.2 186.83 95.57 188.21 C94.91 188.21 94.25 188.21 93.57 188.21 C93.31 188.85 93.04 189.49 92.76 190.14 C91.57 192.21 91.57 192.21 88.57 193.21 C88.24 193.87 87.91 194.53 87.57 195.21 C87.24 195.87 86.91 196.53 86.57 197.21 C85.58 197.54 84.59 197.87 83.57 198.21 C82.89 199.53 82.23 200.87 81.57 202.21 C80.16 203.73 78.7 205.21 77.2 206.64 C74.65 209.12 72.35 211.49 70.14 214.27 C69.62 214.91 69.11 215.55 68.57 216.21 C67.91 216.21 67.25 216.21 66.57 216.21 C66.57 216.87 66.57 217.53 66.57 218.21 C65.2 219.83 65.2 219.83 63.57 221.21 C62.91 221.21 62.25 221.21 61.57 221.21 C61.31 221.85 61.04 222.49 60.76 223.14 C59.57 225.21 59.57 225.21 56.57 226.21 C55.87 227.52 55.21 228.86 54.57 230.21 C53.17 231.82 53.17 231.82 51.57 233.37 C50.71 234.22 50.71 234.22 49.83 235.08 C49.23 235.66 48.63 236.24 48.01 236.83 C46.82 237.99 45.63 239.15 44.45 240.31 C43.92 240.82 43.39 241.33 42.85 241.85 C41.46 243.2 41.46 243.2 40.57 245.21 C39.91 245.21 39.25 245.21 38.57 245.21 C38.24 246.2 37.91 247.19 37.57 248.21 C36.91 248.21 36.25 248.21 35.57 248.21 C35.57 248.87 35.57 249.53 35.57 250.21 C34.91 250.21 34.25 250.21 33.57 250.21 C33.31 250.81 33.04 251.41 32.76 252.02 C28.67 259.55 19.35 263.61 11.57 266.21 C-7.25 267.35 -7.25 267.35 -15.43 262.21 C-16.78 261.46 -18.13 260.71 -19.49 259.96 C-20.46 259.38 -21.43 258.8 -22.43 258.21 C-22.43 257.55 -22.43 256.89 -22.43 256.21 C-23.42 255.88 -24.41 255.55 -25.43 255.21 C-25.43 254.55 -25.43 253.89 -25.43 253.21 C-26.09 253.21 -26.75 253.21 -27.43 253.21 C-29.47 250.3 -30.43 248.81 -30.43 245.21 C-31.09 245.21 -31.75 245.21 -32.43 245.21 C-36.01 234.18 -37.11 224.09 -32.43 213.21 C-29.21 207.19 -25 202.49 -20.06 197.84 C-18.33 196.29 -18.33 196.29 -17.43 194.21 C-16.77 194.21 -16.11 194.21 -15.43 194.21 C-15.43 193.55 -15.43 192.89 -15.43 192.21 C-14.05 190.58 -14.05 190.58 -12.43 189.21 C-11.77 189.21 -11.11 189.21 -10.43 189.21 C-10.16 188.57 -9.89 187.93 -9.61 187.27 C-8.43 185.21 -8.43 185.21 -5.43 184.21 C-4.74 182.88 -4.08 181.55 -3.43 180.21 C-2.1 178.75 -0.72 177.33 0.7 175.96 C1.42 175.25 2.15 174.54 2.89 173.82 C3.73 173.02 3.73 173.02 4.57 172.21 C3.44 172.21 2.3 172.21 1.13 172.21 C-26.59 172.19 -54.31 172.15 -82.03 172.07 C-84.7 172.07 -87.37 172.06 -90.04 172.05 C-91.04 172.05 -91.04 172.05 -92.05 172.05 C-102.12 172.02 -112.18 172.01 -122.24 172.01 C-133.93 172.01 -145.62 171.99 -157.3 171.95 C-163.49 171.93 -169.67 171.91 -175.86 171.92 C-181.69 171.93 -187.51 171.91 -193.34 171.88 C-195.47 171.87 -197.61 171.87 -199.74 171.88 C-215.3 171.94 -226.58 170.86 -238.3 159.54 C-245.41 151.73 -247.83 143.97 -247.86 133.52 C-247.87 132.64 -247.87 131.75 -247.88 130.84 C-247.75 123.77 -246.29 118.22 -242.43 112.21 C-241.77 112.21 -241.11 112.21 -240.43 112.21 C-240.18 111.63 -239.93 111.05 -239.68 110.46 C-238.24 107.88 -236.64 106.15 -234.43 104.21 C-233.77 104.21 -233.11 104.21 -232.43 104.21 C-232.43 103.55 -232.43 102.89 -232.43 102.21 C-231 101.4 -229.56 100.61 -228.11 99.83 C-226.91 99.17 -226.91 99.17 -225.69 98.5 C-214.44 94.05 -202.22 94.94 -190.35 94.98 C-188.22 94.98 -186.09 94.98 -183.96 94.98 C-178.2 94.98 -172.45 94.99 -166.69 95 C-160.67 95.02 -154.64 95.02 -148.62 95.02 C-137.22 95.03 -125.83 95.04 -114.43 95.06 C-101.45 95.09 -88.47 95.1 -75.49 95.11 C-48.8 95.13 -22.11 95.16 4.57 95.21 C4.57 94.55 4.57 93.89 4.57 93.21 C3.91 93.21 3.25 93.21 2.57 93.21 C2.57 92.55 2.57 91.89 2.57 91.21 C1.58 90.88 0.59 90.55 -0.43 90.21 C-0.43 89.55 -0.43 88.89 -0.43 88.21 C-1.09 88.21 -1.75 88.21 -2.43 88.21 C-2.43 87.55 -2.43 86.89 -2.43 86.21 C-3.42 85.88 -4.41 85.55 -5.43 85.21 C-5.43 84.55 -5.43 83.89 -5.43 83.21 C-6.09 83.21 -6.75 83.21 -7.43 83.21 C-7.43 82.55 -7.43 81.89 -7.43 81.21 C-8.42 80.88 -9.41 80.55 -10.43 80.21 C-10.43 79.55 -10.43 78.89 -10.43 78.21 C-11.09 78.21 -11.75 78.21 -12.43 78.21 C-13.87 76.74 -13.87 76.74 -15.55 74.71 C-18.09 71.7 -20.71 68.92 -23.55 66.21 C-31.27 58.53 -35.44 49.74 -35.8 38.77 C-35.65 32.98 -34.21 27.69 -32.43 22.21 C-31.77 22.21 -31.11 22.21 -30.43 22.21 C-30.3 21.44 -30.18 20.68 -30.05 19.89 C-29.43 17.21 -29.43 17.21 -27.43 14.21 C-26.77 14.21 -26.11 14.21 -25.43 14.21 C-25.1 13.34 -25.1 13.34 -24.77 12.46 C-21.6 7.14 -14.64 3.47 -8.98 1.25 C-5.99 0.51 -3.07 0.26 0 0 Z " fill="#000000" transform="translate(909.42578125,799.79296875)"/>
<path d="M0 0 C1.29 0.71 2.56 1.46 3.81 2.25 C5.17 3 6.52 3.75 7.88 4.5 C8.84 5.08 9.81 5.66 10.81 6.25 C10.81 6.91 10.81 7.57 10.81 8.25 C11.47 8.25 12.13 8.25 12.81 8.25 C15.81 11.71 15.81 11.71 15.81 14.25 C16.47 14.25 17.13 14.25 17.81 14.25 C18.63 16.14 19.44 18.04 20.25 19.94 C20.93 21.52 20.93 21.52 21.62 23.14 C25.23 32.56 24.43 41.93 20.81 51.25 C19.05 54.45 17.03 57.35 14.81 60.25 C13.7 61.77 13.7 61.77 12.56 63.31 C11.99 63.95 11.41 64.59 10.81 65.25 C10.15 65.25 9.49 65.25 8.81 65.25 C8.81 65.91 8.81 66.57 8.81 67.25 C7.44 68.88 7.44 68.88 5.81 70.25 C5.15 70.25 4.49 70.25 3.81 70.25 C3.54 70.89 3.28 71.53 3 72.19 C1.81 74.25 1.81 74.25 -1.19 75.25 C-1.89 76.56 -2.56 77.9 -3.19 79.25 C-4.61 80.9 -4.61 80.9 -6.23 82.48 C-6.81 83.06 -7.39 83.63 -7.98 84.22 C-8.59 84.81 -9.19 85.4 -9.81 86 C-10.42 86.6 -11.03 87.2 -11.66 87.82 C-13.17 89.3 -14.68 90.78 -16.19 92.25 C-15.06 92.25 -13.92 92.25 -12.76 92.25 C14.82 92.27 42.4 92.31 69.97 92.38 C83.31 92.42 96.65 92.44 109.98 92.45 C121.61 92.45 133.24 92.47 144.86 92.51 C151.02 92.53 157.17 92.54 163.32 92.54 C169.12 92.53 174.92 92.54 180.72 92.58 C182.84 92.59 184.96 92.59 187.09 92.58 C200.35 92.52 212.29 92.69 223.12 101.44 C225.81 104.25 225.81 104.25 225.81 106.25 C226.47 106.25 227.13 106.25 227.81 106.25 C229.25 108.01 229.25 108.01 230.81 110.38 C231.59 111.52 231.59 111.52 232.38 112.7 C235.75 118.7 236.23 124.19 236.25 130.94 C236.25 131.82 236.26 132.71 236.26 133.62 C236.14 140.68 234.67 146.24 230.81 152.25 C230.15 152.25 229.49 152.25 228.81 152.25 C228.57 152.83 228.32 153.4 228.06 154 C226.63 156.58 225.03 158.31 222.81 160.25 C222.15 160.25 221.49 160.25 220.81 160.25 C220.81 160.91 220.81 161.57 220.81 162.25 C219.53 163.06 218.24 163.85 216.94 164.62 C216.22 165.07 215.5 165.51 214.76 165.96 C207.63 169.08 200.02 169.55 192.33 169.49 C191.44 169.49 190.54 169.49 189.61 169.5 C186.63 169.5 183.65 169.49 180.67 169.48 C178.52 169.48 176.37 169.48 174.22 169.48 C168.4 169.48 162.59 169.47 156.78 169.45 C150.69 169.44 144.61 169.44 138.53 169.44 C127.02 169.43 115.51 169.41 104 169.39 C90.89 169.37 77.78 169.36 64.68 169.35 C37.72 169.33 10.77 169.29 -16.19 169.25 C-16.19 169.91 -16.19 170.57 -16.19 171.25 C-15.53 171.25 -14.87 171.25 -14.19 171.25 C-14.19 171.91 -14.19 172.57 -14.19 173.25 C-13.2 173.58 -12.21 173.91 -11.19 174.25 C-11.19 174.91 -11.19 175.57 -11.19 176.25 C-10.53 176.25 -9.87 176.25 -9.19 176.25 C-9.19 176.91 -9.19 177.57 -9.19 178.25 C-8.2 178.58 -7.21 178.91 -6.19 179.25 C-6.19 179.91 -6.19 180.57 -6.19 181.25 C-5.53 181.25 -4.87 181.25 -4.19 181.25 C-2.92 182.54 -2.92 182.54 -1.38 184.44 C1.48 187.83 4.51 190.93 7.7 194.01 C17.08 203.08 23.69 212.65 24.19 226.19 C23.88 234.76 21.54 243.65 15.81 250.25 C15.15 250.25 14.49 250.25 13.81 250.25 C13.49 251.11 13.49 251.11 13.16 251.99 C9.98 257.32 3.03 260.98 -2.63 263.21 C-14.24 266.08 -25.35 264.3 -35.54 258.27 C-36.08 257.94 -36.63 257.6 -37.19 257.25 C-37.19 256.59 -37.19 255.93 -37.19 255.25 C-38.05 254.88 -38.05 254.88 -38.94 254.5 C-41.52 253.07 -43.25 251.47 -45.19 249.25 C-45.19 248.59 -45.19 247.93 -45.19 247.25 C-45.83 246.98 -46.47 246.71 -47.12 246.44 C-49.19 245.25 -49.19 245.25 -50.19 242.25 C-51.18 241.92 -52.17 241.59 -53.19 241.25 C-53.19 240.59 -53.19 239.93 -53.19 239.25 C-53.85 239.25 -54.51 239.25 -55.19 239.25 C-55.19 238.59 -55.19 237.93 -55.19 237.25 C-55.85 237.25 -56.51 237.25 -57.19 237.25 C-58.81 235.88 -58.81 235.88 -60.19 234.25 C-60.19 233.59 -60.19 232.93 -60.19 232.25 C-60.85 232.25 -61.51 232.25 -62.19 232.25 C-63.6 230.81 -63.6 230.81 -65.25 228.8 C-70 223.22 -75.24 218.18 -80.49 213.08 C-81.59 211.99 -81.59 211.99 -82.71 210.88 C-83.72 209.91 -83.72 209.91 -84.74 208.91 C-86.19 207.25 -86.19 207.25 -86.19 205.25 C-86.85 205.25 -87.51 205.25 -88.19 205.25 C-89.63 203.78 -89.63 203.78 -91.31 201.75 C-94.57 197.9 -98.04 194.39 -101.68 190.91 C-103.19 189.25 -103.19 189.25 -103.19 187.25 C-103.85 187.25 -104.51 187.25 -105.19 187.25 C-105.19 186.59 -105.19 185.93 -105.19 185.25 C-106.18 184.92 -107.17 184.59 -108.19 184.25 C-108.19 183.59 -108.19 182.93 -108.19 182.25 C-108.85 182.25 -109.51 182.25 -110.19 182.25 C-110.19 181.59 -110.19 180.93 -110.19 180.25 C-111.18 179.92 -112.17 179.59 -113.19 179.25 C-113.19 178.59 -113.19 177.93 -113.19 177.25 C-113.85 177.25 -114.51 177.25 -115.19 177.25 C-115.19 176.59 -115.19 175.93 -115.19 175.25 C-116.18 174.92 -117.17 174.59 -118.19 174.25 C-118.19 173.59 -118.19 172.93 -118.19 172.25 C-118.85 172.25 -119.51 172.25 -120.19 172.25 C-121.63 170.78 -121.63 170.78 -123.31 168.75 C-125.86 165.74 -128.48 162.93 -131.31 160.19 C-139.87 151.72 -144.04 143.09 -144.38 130.88 C-144.26 123.33 -142.66 115.49 -138.19 109.25 C-136.7 108.75 -136.7 108.75 -135.19 108.25 C-134.9 107.51 -134.6 106.77 -134.3 106.01 C-132.9 102.55 -130.99 100.73 -128.32 98.12 C-127.84 97.66 -127.37 97.19 -126.88 96.7 C-125.36 95.21 -123.84 93.73 -122.31 92.25 C-120.8 90.77 -119.28 89.28 -117.77 87.8 C-116.39 86.45 -115.01 85.1 -113.63 83.76 C-111.13 81.28 -111.13 81.28 -108.99 78.43 C-108.4 77.71 -107.8 76.99 -107.19 76.25 C-106.53 76.25 -105.87 76.25 -105.19 76.25 C-105.19 75.59 -105.19 74.93 -105.19 74.25 C-103.81 72.62 -103.81 72.62 -102.19 71.25 C-101.53 71.25 -100.87 71.25 -100.19 71.25 C-99.92 70.61 -99.65 69.97 -99.38 69.31 C-98.19 67.25 -98.19 67.25 -95.19 66.25 C-94.48 64.94 -93.82 63.6 -93.19 62.25 C-91.74 60.59 -91.74 60.59 -90.07 58.97 C-89.16 58.08 -89.16 58.08 -88.23 57.17 C-87.6 56.55 -86.96 55.94 -86.31 55.31 C-81.37 50.52 -81.37 50.52 -76.87 45.31 C-76.31 44.63 -75.76 43.95 -75.19 43.25 C-74.53 43.25 -73.87 43.25 -73.19 43.25 C-73.19 42.59 -73.19 41.93 -73.19 41.25 C-71.81 39.62 -71.81 39.62 -70.19 38.25 C-69.53 38.25 -68.87 38.25 -68.19 38.25 C-67.92 37.61 -67.65 36.97 -67.38 36.31 C-66.19 34.25 -66.19 34.25 -63.19 33.25 C-62.48 31.94 -61.82 30.6 -61.19 29.25 C-59.78 27.63 -59.78 27.63 -58.18 26.09 C-57.61 25.52 -57.03 24.96 -56.44 24.38 C-55.84 23.8 -55.24 23.22 -54.62 22.62 C-53.43 21.47 -52.25 20.31 -51.06 19.15 C-50.53 18.64 -50.01 18.13 -49.46 17.61 C-48.07 16.26 -48.07 16.26 -47.19 14.25 C-46.53 14.25 -45.87 14.25 -45.19 14.25 C-44.79 13.35 -44.79 13.35 -44.38 12.43 C-36.85 -1.4 -13.67 -6.06 0 0 Z " fill="#000000" transform="translate(382.1875,215.75)"/>
<path d="M0 0 C2.21 -0 4.41 -0.01 6.62 -0.02 C12.59 -0.03 18.56 -0.02 24.52 -0.01 C30.78 -0.01 37.05 -0.01 43.31 -0.02 C54.49 -0.02 65.68 -0.02 76.86 -0 C86.98 0.01 97.1 0.01 107.22 -0 C119 -0.02 130.78 -0.02 142.56 -0.02 C148.79 -0.01 155.01 -0.01 161.24 -0.02 C167.09 -0.03 172.95 -0.02 178.8 -0.01 C180.94 -0 183.08 -0 185.22 -0.01 C213.73 -0.09 213.73 -0.09 222.85 6.89 C223.65 7.48 224.45 8.06 225.27 8.67 C227.1 10.39 227.1 10.39 228.1 13.39 C229.09 13.72 230.08 14.05 231.1 14.39 C238.87 24.26 239.42 34.7 238.97 46.76 C237.41 53.24 233.77 58.88 230.1 64.39 C229.44 64.39 228.78 64.39 228.1 64.39 C228.1 65.05 228.1 65.71 228.1 66.39 C226.01 68.01 226.01 68.01 223.16 69.83 C222.24 70.42 221.33 71.02 220.38 71.63 C213.06 75.54 206.43 76.83 198.19 76.77 C197.23 76.77 196.27 76.78 195.28 76.78 C192.1 76.8 188.91 76.79 185.72 76.78 C183.43 76.78 181.14 76.79 178.84 76.79 C172.63 76.81 166.41 76.8 160.2 76.79 C153.69 76.78 147.18 76.79 140.67 76.8 C129.04 76.8 117.41 76.79 105.78 76.78 C95.25 76.76 84.72 76.77 74.18 76.78 C61.93 76.8 49.69 76.8 37.44 76.79 C30.96 76.79 24.48 76.79 18 76.8 C11.91 76.81 5.83 76.8 -0.26 76.78 C-2.5 76.78 -4.73 76.78 -6.96 76.79 C-10.02 76.79 -13.07 76.78 -16.12 76.77 C-17 76.78 -17.88 76.78 -18.79 76.79 C-28.88 76.69 -36.95 72.47 -44.9 66.39 C-54 57 -56.37 46.53 -56.2 33.87 C-55.98 28.7 -54.62 24.78 -51.9 20.39 C-51.23 19.06 -50.56 17.73 -49.9 16.39 C-49.24 16.39 -48.58 16.39 -47.9 16.39 C-47.64 15.79 -47.38 15.19 -47.11 14.58 C-45.83 12.26 -44.61 11.01 -42.59 9.33 C-41.73 8.6 -41.73 8.6 -40.85 7.85 C-28.8 -1.2 -14.33 -0.04 0 0 Z " fill="#000000" transform="translate(809.902099609375,243.61181640625)"/>
<path d="M0 0 C0.95 -0 1.9 -0.01 2.88 -0.01 C6.06 -0.02 9.23 -0.02 12.41 -0.01 C14.69 -0.02 16.97 -0.02 19.25 -0.03 C25.44 -0.04 31.63 -0.04 37.82 -0.04 C42.99 -0.04 48.16 -0.04 53.32 -0.05 C66.22 -0.06 79.11 -0.06 92 -0.05 C103.18 -0.05 114.37 -0.06 125.55 -0.08 C137.05 -0.1 148.55 -0.11 160.05 -0.1 C166.5 -0.1 172.95 -0.1 179.4 -0.12 C185.46 -0.13 191.52 -0.13 197.59 -0.12 C199.81 -0.11 202.04 -0.12 204.26 -0.12 C207.3 -0.13 210.34 -0.13 213.38 -0.11 C214.25 -0.12 215.13 -0.13 216.03 -0.14 C226.52 -0.04 235.02 3.87 243.25 10.26 C252.08 19.38 254.72 29.6 254.55 41.93 C254.32 47.26 252.78 51.59 250.25 56.26 C249.59 57.59 248.92 58.93 248.25 60.26 C247.59 60.26 246.93 60.26 246.25 60.26 C245.99 60.86 245.73 61.45 245.46 62.07 C241.98 68.38 234.61 72.63 227.96 74.82 C218.58 77.3 208.78 76.68 199.16 76.65 C196.92 76.65 194.68 76.66 192.44 76.66 C186.38 76.68 180.32 76.67 174.26 76.66 C167.9 76.66 161.55 76.66 155.2 76.67 C143.84 76.67 132.49 76.66 121.14 76.65 C110.87 76.64 100.59 76.64 90.32 76.65 C78.36 76.67 66.41 76.67 54.45 76.66 C48.13 76.66 41.81 76.66 35.49 76.67 C29.55 76.68 23.6 76.67 17.66 76.65 C15.49 76.65 13.31 76.65 11.14 76.66 C-16.98 76.74 -16.98 76.74 -26.75 68.26 C-26.75 67.6 -26.75 66.94 -26.75 66.26 C-27.33 66.03 -27.92 65.8 -28.52 65.56 C-31.31 63.93 -32.56 62.11 -34.37 59.45 C-34.96 58.6 -35.55 57.74 -36.16 56.87 C-41.48 48.13 -42.05 36.16 -39.75 26.26 C-38.5 23.2 -38.5 23.2 -36.75 20.26 C-36.34 19.55 -35.93 18.85 -35.51 18.12 C-33 13.89 -33 13.89 -31.75 12.26 C-31.09 12.26 -30.43 12.26 -29.75 12.26 C-29.75 11.6 -29.75 10.94 -29.75 10.26 C-27.4 8.39 -27.4 8.39 -24.25 6.26 C-23.23 5.56 -22.21 4.86 -21.15 4.14 C-14.29 0.36 -7.66 -0.03 0 0 Z " fill="#000000" transform="translate(271.74705505371094,959.7393035888672)"/>
<path d="M0 0 C1.19 -0 2.39 -0.01 3.62 -0.01 C6.86 -0.02 10.1 -0.02 13.35 -0.02 C15.38 -0.02 17.41 -0.02 19.45 -0.03 C26.56 -0.04 33.67 -0.04 40.79 -0.04 C47.39 -0.04 53.99 -0.05 60.59 -0.07 C66.28 -0.08 71.97 -0.08 77.67 -0.08 C81.06 -0.08 84.45 -0.09 87.83 -0.1 C91.62 -0.11 95.4 -0.1 99.18 -0.1 C100.84 -0.11 100.84 -0.11 102.53 -0.11 C116.65 -0.06 127.12 2.29 137.61 11.99 C140.54 15.08 142.69 18.38 144.66 22.15 C145.01 22.72 145.37 23.3 145.74 23.9 C147.07 27.15 147.17 30.42 147.34 33.9 C147.38 34.62 147.42 35.34 147.46 36.08 C147.88 45.61 146.31 51.77 141.66 60.15 C141 60.15 140.34 60.15 139.66 60.15 C139.29 61.01 139.29 61.01 138.91 61.9 C137.47 64.47 135.87 66.21 133.66 68.15 C133 68.15 132.34 68.15 131.66 68.15 C131.66 68.81 131.66 69.47 131.66 70.15 C123.12 74.96 115.98 75.86 106.28 75.76 C104.87 75.76 103.46 75.77 102.05 75.78 C98.25 75.79 94.46 75.77 90.66 75.75 C86.67 75.73 82.69 75.74 78.7 75.74 C72.01 75.74 65.32 75.72 58.63 75.69 C50.91 75.65 43.19 75.64 35.46 75.65 C28.01 75.65 20.56 75.64 13.11 75.62 C9.95 75.62 6.79 75.61 3.62 75.62 C-0.1 75.62 -3.82 75.6 -7.54 75.58 C-9.56 75.57 -11.57 75.57 -13.58 75.57 C-14.78 75.56 -15.99 75.55 -17.23 75.54 C-18.27 75.54 -19.31 75.53 -20.39 75.53 C-23.88 75.08 -26.29 73.87 -29.34 72.15 C-30.11 71.71 -30.89 71.28 -31.68 70.83 C-32.69 70.21 -32.69 70.21 -33.72 69.58 C-34.41 69.17 -35.1 68.76 -35.8 68.33 C-36.31 67.94 -36.82 67.55 -37.34 67.15 C-37.34 66.49 -37.34 65.83 -37.34 65.15 C-38 65.15 -38.66 65.15 -39.34 65.15 C-39.34 64.49 -39.34 63.83 -39.34 63.15 C-40 63.15 -40.66 63.15 -41.34 63.15 C-42.78 61.13 -42.78 61.13 -44.34 58.46 C-44.86 57.59 -45.37 56.72 -45.91 55.82 C-50.55 47.17 -50.53 37.8 -49.34 28.15 C-46.25 18.35 -39.87 9.8 -30.86 4.75 C-20.86 -0.16 -10.98 -0 0 0 Z " fill="#000000" transform="translate(901.343505859375,372.854736328125)"/>
<path d="M0 0 C1.4 -0.01 2.8 -0.02 4.21 -0.03 C7.98 -0.06 11.76 -0.05 15.54 -0.04 C18.7 -0.03 21.87 -0.04 25.04 -0.05 C32.51 -0.07 39.98 -0.07 47.46 -0.04 C55.14 -0.02 62.82 -0.04 70.51 -0.08 C77.13 -0.11 83.75 -0.12 90.38 -0.11 C94.32 -0.1 98.27 -0.1 102.21 -0.12 C105.92 -0.15 109.63 -0.14 113.34 -0.11 C115.34 -0.1 117.33 -0.12 119.32 -0.14 C127.9 -0.03 133.6 1.87 140.71 6.66 C141.7 7.32 142.69 7.98 143.71 8.66 C143.71 9.32 143.71 9.98 143.71 10.66 C144.37 10.66 145.03 10.66 145.71 10.66 C145.71 11.32 145.71 11.98 145.71 12.66 C146.37 12.66 147.03 12.66 147.71 12.66 C149.14 14.67 149.14 14.67 150.71 17.35 C151.22 18.22 151.74 19.09 152.27 19.99 C156.92 28.64 156.9 38.01 155.71 47.66 C153.64 54.2 150.22 59.53 145.71 64.66 C145.05 64.66 144.39 64.66 143.71 64.66 C143.71 65.32 143.71 65.98 143.71 66.66 C132.97 75.32 120.81 75.81 107.61 75.81 C106.42 75.81 105.22 75.81 104 75.82 C100.75 75.83 97.5 75.83 94.25 75.83 C92.22 75.83 90.18 75.83 88.14 75.84 C81.02 75.84 73.9 75.85 66.78 75.85 C60.18 75.85 53.57 75.86 46.96 75.87 C41.27 75.89 35.57 75.89 29.87 75.89 C26.48 75.89 23.09 75.89 19.7 75.9 C15.91 75.91 12.12 75.91 8.33 75.91 C7.22 75.91 6.12 75.92 4.98 75.92 C-9.54 75.86 -20.44 73.8 -31.25 63.82 C-34.18 60.73 -36.33 57.42 -38.29 53.66 C-38.65 53.07 -39.01 52.48 -39.38 51.88 C-42.3 44.8 -42.33 33.06 -40.29 25.66 C-38.82 22.21 -37.14 18.93 -35.29 15.66 C-34.63 15.66 -33.97 15.66 -33.29 15.66 C-33.05 15.09 -32.8 14.51 -32.54 13.91 C-31.11 11.33 -29.51 9.6 -27.29 7.66 C-26.63 7.66 -25.97 7.66 -25.29 7.66 C-25.29 7 -25.29 6.34 -25.29 5.66 C-16.78 0.88 -9.66 -0.06 0 0 Z " fill="#000000" transform="translate(272.29296875,831.337158203125)"/>
</svg>
